<svg width="29" height="28" viewBox="0 0 29 28" fill="none" xmlns="http://www.w3.org/2000/svg">
<path d="M24.5245 20.8429C24.1506 21.6989 23.7081 22.4868 23.1953 23.2112C22.4964 24.1987 21.9241 24.8823 21.483 25.2619C20.7993 25.8849 20.0668 26.204 19.2824 26.2222C18.7193 26.2222 18.0402 26.0634 17.2497 25.7413C16.4566 25.4207 15.7277 25.2619 15.0613 25.2619C14.3623 25.2619 13.6127 25.4207 12.8109 25.7413C12.0079 26.0634 11.3609 26.2313 10.8663 26.2479C10.1141 26.2797 9.36436 25.9515 8.61597 25.2619C8.13831 24.849 7.54084 24.1413 6.82511 23.1386C6.05718 22.0679 5.42584 20.8263 4.93123 19.4108C4.40153 17.8819 4.13599 16.4013 4.13599 14.968C4.13599 13.3261 4.49401 11.9099 5.21112 10.7232C5.7747 9.77003 6.52447 9.01812 7.46286 8.46613C8.40125 7.91414 9.41518 7.63285 10.5071 7.61485C11.1046 7.61485 11.8881 7.79799 12.8617 8.15792C13.8326 8.51906 14.456 8.7022 14.7293 8.7022C14.9337 8.7022 15.6262 8.48805 16.8002 8.06113C17.9105 7.66521 18.8475 7.50128 19.6151 7.56586C21.6952 7.73221 23.2579 8.54477 24.2971 10.0087C22.4368 11.1257 21.5166 12.6901 21.5349 14.6971C21.5517 16.2604 22.124 17.5612 23.2487 18.5942C23.7584 19.0735 24.3277 19.4441 24.961 19.7072C24.8236 20.1019 24.6787 20.48 24.5245 20.8429ZM19.754 2.24014C19.754 3.46542 19.3023 4.60946 18.4019 5.66837C17.3153 6.92721 16.001 7.65463 14.5758 7.53984C14.5576 7.39285 14.5471 7.23814 14.5471 7.07557C14.5471 5.8993 15.0638 4.64046 15.9815 3.61119C16.4396 3.09005 17.0223 2.65673 17.7289 2.31107C18.4339 1.97056 19.1008 1.78225 19.728 1.75C19.7463 1.9138 19.754 2.07761 19.754 2.24012V2.24014Z" fill="white"/>
</svg>
