<svg width="24" height="25" viewBox="0 0 24 25" fill="none" xmlns="http://www.w3.org/2000/svg">
<path fill-rule="evenodd" clip-rule="evenodd" d="M6.84572 19.1204C6.74782 18.5072 6.4668 17.9522 6.05816 17.5088C4.18319 16.0427 3 13.8942 3 11.5C3 7.08173 7.02944 3.5 12 3.5C16.9706 3.5 21 7.08173 21 11.5C21 15.9183 16.9706 19.5 12 19.5C11.1546 19.5 10.3365 19.3964 9.56074 19.2027C9.45389 19.176 9.34187 19.22 9.28125 19.3119C9.15858 19.498 9.02331 19.6851 8.87719 19.8674C8.64734 20.1542 8.39065 20.4289 8.11392 20.6685C7.59543 21.1174 7.00662 21.443 6.39232 21.4932C6.37166 21.4949 6.35097 21.4963 6.33025 21.4974C6.28866 21.4995 6.26498 21.4519 6.28953 21.4182C6.30109 21.4024 6.3125 21.3865 6.32376 21.3704C6.67743 20.8664 6.88397 20.2586 6.88397 19.6044C6.88397 19.5915 6.88389 19.5786 6.88373 19.5658C6.88185 19.4146 6.86893 19.2659 6.84572 19.1204ZM4.66223 18.9535C2.45613 17.1579 1 14.5103 1 11.5C1 5.76221 6.15283 1.5 12 1.5C17.8472 1.5 23 5.76221 23 11.5C23 17.2378 17.8472 21.5 12 21.5C11.3978 21.5 10.8057 21.4559 10.2276 21.3709C9.93606 21.7084 9.60764 22.0363 9.24519 22.3294C8.55521 22.8873 7.59485 23.4353 6.43241 23.4948L6.43238 23.4948C4.55136 23.5909 3.75168 21.503 4.67402 20.2392C4.81033 20.0524 4.88397 19.8363 4.88397 19.6044C4.88397 19.3684 4.80711 19.1449 4.66223 18.9535Z" fill="#333333"/>
</svg>
