<svg width="24" height="25" viewBox="0 0 24 25" fill="none" xmlns="http://www.w3.org/2000/svg">
<path fill-rule="evenodd" clip-rule="evenodd" d="M7 8.5C7 5.73858 9.23858 3.5 12 3.5C14.7614 3.5 17 5.73858 17 8.5C17 11.2614 14.7614 13.5 12 13.5C9.23858 13.5 7 11.2614 7 8.5ZM12 5.5C10.3431 5.5 9 6.84315 9 8.5C9 10.1569 10.3431 11.5 12 11.5C13.6569 11.5 15 10.1569 15 8.5C15 6.84315 13.6569 5.5 12 5.5Z" fill="#333333"/>
<path d="M6.28645 6.4581C6.81559 6.2999 7.1163 5.7427 6.9581 5.21355C6.7999 4.68441 6.2427 4.3837 5.71355 4.5419C4.06991 5.03331 3 6.6924 3 8.5C3 10.3076 4.06991 11.9667 5.71355 12.4581C6.2427 12.6163 6.7999 12.3156 6.9581 11.7864C7.1163 11.2573 6.81559 10.7001 6.28645 10.5419C5.62978 10.3456 5 9.57911 5 8.5C5 7.42089 5.62978 6.65442 6.28645 6.4581Z" fill="#333333"/>
<path d="M18.2864 4.5419C17.7573 4.3837 17.2001 4.68441 17.0419 5.21355C16.8837 5.7427 17.1844 6.2999 17.7136 6.4581C18.3702 6.65442 19 7.42089 19 8.5C19 9.57911 18.3702 10.3456 17.7136 10.5419C17.1844 10.7001 16.8837 11.2573 17.0419 11.7864C17.2001 12.3156 17.7573 12.6163 18.2864 12.4581C19.9301 11.9667 21 10.3076 21 8.5C21 6.6924 19.9301 5.03331 18.2864 4.5419Z" fill="#333333"/>
<path fill-rule="evenodd" clip-rule="evenodd" d="M12 14.5C10.0062 14.5 8.09544 14.7542 6.64442 15.3986C5.16516 16.0554 4 17.2142 4 19C4 19.4667 4.08524 19.9978 4.40272 20.5043C4.72017 21.0106 5.20786 21.3939 5.83781 21.6789C7.04688 22.2259 8.98391 22.5 12 22.5C15.0161 22.5 16.9531 22.2259 18.1622 21.6789C18.7921 21.3939 19.2798 21.0106 19.5973 20.5043C19.9148 19.9978 20 19.4667 20 19C20 17.2142 18.8348 16.0554 17.3556 15.3986C15.9046 14.7542 13.9938 14.5 12 14.5ZM6 19C6 18.2858 6.40184 17.6946 7.45609 17.2264C8.53857 16.7458 10.1278 16.5 12 16.5C13.8722 16.5 15.4614 16.7458 16.5439 17.2264C17.5982 17.6946 18 18.2858 18 19C18 19.2236 17.9602 19.3502 17.9027 19.442C17.8452 19.5338 17.7079 19.6893 17.3378 19.8567C16.5469 20.2145 14.9839 20.5 12 20.5C9.01609 20.5 7.45312 20.2145 6.66219 19.8567C6.29214 19.6893 6.15483 19.5338 6.09728 19.442C6.03976 19.3502 6 19.2236 6 19Z" fill="#333333"/>
<path d="M19.1042 14.0555C19.3497 13.5608 19.9498 13.3587 20.4445 13.6042C21.9384 14.3456 23 15.6261 23 17.5C23 18.0523 22.5523 18.5 22 18.5C21.4477 18.5 21 18.0523 21 17.5C21 16.5458 20.525 15.8769 19.5555 15.3958C19.0608 15.1503 18.8587 14.5502 19.1042 14.0555Z" fill="#333333"/>
<path d="M4.44452 15.3958C4.93924 15.1503 5.14127 14.5502 4.89577 14.0555C4.65027 13.5608 4.0502 13.3587 3.55548 13.6042C2.06158 14.3456 1 15.6261 1 17.5C1 18.0523 1.44772 18.5 2 18.5C2.55228 18.5 3 18.0523 3 17.5C3 16.5458 3.47503 15.8769 4.44452 15.3958Z" fill="#333333"/>
</svg>
