<svg width="18" height="18" viewBox="0 0 18 18" fill="none" xmlns="http://www.w3.org/2000/svg">
<path d="M9.00005 12.75C9.21255 12.75 9.39067 12.6781 9.53442 12.5344C9.67817 12.3906 9.75005 12.2125 9.75005 12V9C9.75005 8.7875 9.67817 8.60938 9.53442 8.46563C9.39067 8.32188 9.21255 8.25 9.00005 8.25C8.78755 8.25 8.60942 8.32188 8.46567 8.46563C8.32192 8.60938 8.25005 8.7875 8.25005 9V12C8.25005 12.2125 8.32192 12.3906 8.46567 12.5344C8.60942 12.6781 8.78755 12.75 9.00005 12.75ZM9.00005 6.75C9.21255 6.75 9.39067 6.67813 9.53442 6.53438C9.67817 6.39062 9.75005 6.2125 9.75005 6C9.75005 5.7875 9.67817 5.60938 9.53442 5.46563C9.39067 5.32188 9.21255 5.25 9.00005 5.25C8.78755 5.25 8.60942 5.32188 8.46567 5.46563C8.32192 5.60938 8.25005 5.7875 8.25005 6C8.25005 6.2125 8.32192 6.39062 8.46567 6.53438C8.60942 6.67813 8.78755 6.75 9.00005 6.75ZM9.00005 16.5C7.96255 16.5 6.98755 16.3031 6.07505 15.9094C5.16255 15.5156 4.3688 14.9813 3.6938 14.3063C3.0188 13.6313 2.48442 12.8375 2.09067 11.925C1.69692 11.0125 1.50005 10.0375 1.50005 9C1.50005 7.9625 1.69692 6.9875 2.09067 6.075C2.48442 5.1625 3.0188 4.36875 3.6938 3.69375C4.3688 3.01875 5.16255 2.48438 6.07505 2.09063C6.98755 1.69688 7.96255 1.5 9.00005 1.5C10.0375 1.5 11.0125 1.69688 11.925 2.09063C12.8375 2.48438 13.6313 3.01875 14.3063 3.69375C14.9813 4.36875 15.5157 5.1625 15.9094 6.075C16.3032 6.9875 16.5 7.9625 16.5 9C16.5 10.0375 16.3032 11.0125 15.9094 11.925C15.5157 12.8375 14.9813 13.6313 14.3063 14.3063C13.6313 14.9813 12.8375 15.5156 11.925 15.9094C11.0125 16.3031 10.0375 16.5 9.00005 16.5ZM9.00005 15C10.675 15 12.0938 14.4188 13.2563 13.2563C14.4188 12.0938 15 10.675 15 9C15 7.325 14.4188 5.90625 13.2563 4.74375C12.0938 3.58125 10.675 3 9.00005 3C7.32505 3 5.9063 3.58125 4.7438 4.74375C3.5813 5.90625 3.00005 7.325 3.00005 9C3.00005 10.675 3.5813 12.0938 4.7438 13.2563C5.9063 14.4188 7.32505 15 9.00005 15Z" fill="#FF6060"/>
</svg>
