<svg width="29" height="28" viewBox="0 0 29 28" fill="none" xmlns="http://www.w3.org/2000/svg">
<path fill-rule="evenodd" clip-rule="evenodd" d="M24.7417 14.2385C24.7417 13.494 24.6748 12.7781 24.5507 12.0908H14.6617V16.1524H20.3126C20.0692 17.4649 19.3294 18.577 18.2173 19.3215V21.9561H21.6107C23.5962 20.1281 24.7417 17.4363 24.7417 14.2385Z" fill="#4285F4"/>
<path fill-rule="evenodd" clip-rule="evenodd" d="M14.6617 24.5001C17.4967 24.5001 19.8735 23.5599 21.6108 21.9563L18.2173 19.3217C17.2771 19.9517 16.0744 20.324 14.6617 20.324C11.9269 20.324 9.61211 18.4769 8.78643 15.9951H5.27847V18.7156C7.0062 22.1472 10.5571 24.5001 14.6617 24.5001Z" fill="#34A853"/>
<path fill-rule="evenodd" clip-rule="evenodd" d="M8.78643 15.9951C8.57643 15.3651 8.45711 14.6922 8.45711 14.0001C8.45711 13.3081 8.57643 12.6351 8.78643 12.0051V9.28467H5.27847C4.56733 10.7022 4.16165 12.3058 4.16165 14.0001C4.16165 15.6944 4.56733 17.2981 5.27847 18.7156L8.78643 15.9951Z" fill="#FBBC05"/>
<path fill-rule="evenodd" clip-rule="evenodd" d="M14.6617 7.67614C16.2033 7.67614 17.5873 8.20591 18.6755 9.24637L21.6871 6.23477C19.8687 4.54046 17.4919 3.5 14.6617 3.5C10.5571 3.5 7.0062 5.85296 5.27847 9.28455L8.78643 12.005C9.61211 9.52319 11.9269 7.67614 14.6617 7.67614Z" fill="#EA4335"/>
</svg>
