<svg width="24" height="24" viewBox="0 0 24 24" fill="none" xmlns="http://www.w3.org/2000/svg">
<path fill-rule="evenodd" clip-rule="evenodd" d="M12.2797 3.71567C12.0971 3.66249 11.9031 3.66249 11.7205 3.71567C11.6679 3.73097 11.5755 3.76927 11.379 3.91805C11.1724 4.07451 10.9194 4.29843 10.5252 4.64884L5.28556 9.30628C4.64321 9.87726 4.46111 10.0494 4.33452 10.2399C4.21274 10.4231 4.12201 10.6251 4.066 10.8378C4.00777 11.0589 4.00008 11.3094 4.00008 12.1689V15.9999C4.00008 16.9454 4.00062 17.6045 4.03582 18.1204C4.0704 18.6273 4.13508 18.9225 4.22844 19.1479C4.53292 19.883 5.11694 20.467 5.85202 20.7715C6.07741 20.8649 6.37261 20.9295 6.87952 20.9641C7.39542 20.9993 8.05451 20.9999 9.00007 20.9999H15.0001C15.9456 20.9999 16.6047 20.9993 17.1206 20.9641C17.6275 20.9295 17.9227 20.8649 18.1481 20.7715C18.8832 20.467 19.4672 19.883 19.7717 19.1479C19.8651 18.9225 19.9297 18.6273 19.9643 18.1204C19.9995 17.6045 20.0001 16.9454 20.0001 15.9999V12.1689C20.0001 11.3094 19.9924 11.0589 19.9342 10.8378C19.8781 10.6251 19.7874 10.4231 19.6656 10.2399C19.539 10.0494 19.3569 9.87726 18.7146 9.30628L13.475 4.64884C13.0808 4.29843 12.8278 4.07451 12.6211 3.91805C12.4246 3.76927 12.3322 3.73097 12.2797 3.71567ZM11.1612 1.79544C11.7091 1.63589 12.2911 1.63589 12.8389 1.79544C13.219 1.90615 13.5342 2.10083 13.8284 2.32351C14.1054 2.53323 14.4173 2.81052 14.7765 3.12983L20.0433 7.81146C20.0717 7.83667 20.0997 7.86153 20.1273 7.88607C20.649 8.34929 21.0431 8.69922 21.3312 9.13265C21.5748 9.49903 21.7562 9.90309 21.8682 10.3285C22.0008 10.8318 22.0005 11.3589 22.0001 12.0565C22.0001 12.0935 22.0001 12.1309 22.0001 12.1689V16.0354C22.0001 16.9372 22.0001 17.6646 21.9597 18.2566C21.9182 18.8653 21.8306 19.4036 21.6195 19.9133C21.112 21.1384 20.1386 22.1118 18.9135 22.6193C18.4038 22.8304 17.8655 22.918 17.2568 22.9595C16.6648 22.9999 15.9374 22.9999 15.0356 22.9999H8.96455C8.0628 22.9999 7.33539 22.9999 6.74338 22.9595C6.13464 22.918 5.59636 22.8304 5.08666 22.6193C3.86152 22.1118 2.88815 21.1384 2.38068 19.9133C2.16955 19.4036 2.08199 18.8653 2.04046 18.2566C2.00006 17.6646 2.00007 16.9371 2.00008 16.0354L2.00008 12.1689C2.00008 12.1309 2.00006 12.0935 2.00004 12.0565C1.99967 11.3589 1.9994 10.8318 2.13192 10.3285C2.24395 9.90309 2.4254 9.49903 2.66896 9.13265C2.95708 8.69922 3.35117 8.34929 3.87284 7.88607C3.90048 7.86153 3.92848 7.83667 3.95683 7.81146L9.22366 3.12984C9.58287 2.81052 9.8948 2.53323 10.1718 2.32351C10.4659 2.10083 10.7811 1.90615 11.1612 1.79544Z" fill="#333333"/>
</svg>
