<svg width="24" height="25" viewBox="0 0 24 25" fill="none" xmlns="http://www.w3.org/2000/svg">
<path fill-rule="evenodd" clip-rule="evenodd" d="M19.2115 2.5671L3.70038 6.44487C1.63879 6.96027 1.38144 9.786 3.316 10.6653L8.09504 12.8376C9.07484 13.283 10.1355 13.4439 11.1662 13.334C11.0563 14.3647 11.2172 15.4254 11.6626 16.4052L13.8349 21.1842C14.7142 23.1188 17.5399 22.8614 18.0553 20.7998L21.9331 5.28874C22.344 3.64504 20.8552 2.15618 19.2115 2.5671ZM8.92264 11.0169C9.85973 11.4428 10.9086 11.4754 11.8478 11.1423C12.2027 11.0163 12.542 10.8382 12.8537 10.6092C12.8971 10.5774 12.94 10.5445 12.9823 10.5107L15.2711 8.67962C15.6354 8.38819 16.112 8.86479 15.8206 9.22908L13.9895 11.5179C13.9557 11.5602 13.9228 11.6031 13.891 11.6465C13.662 11.9582 13.4839 12.2975 13.358 12.6524C13.0248 13.5917 13.0574 14.6405 13.4833 15.5776L15.6556 20.3566C15.7513 20.5672 16.0589 20.5392 16.1151 20.3148L19.9928 4.80367C20.0376 4.62473 19.8755 4.46265 19.6965 4.50738L4.18545 8.38515C3.96102 8.44126 3.933 8.74888 4.14361 8.84461L8.92264 11.0169Z" fill="#333333"/>
</svg>
